<svg width="29" height="29" viewBox="0 0 29 29" fill="none" xmlns="http://www.w3.org/2000/svg">
<path d="M4.83333 10.875C4.83333 7.45732 4.83333 5.74848 5.89507 4.68674C6.95681 3.625 8.66565 3.625 12.0833 3.625H16.9167C20.3343 3.625 22.0432 3.625 23.1049 4.68674C24.1667 5.74848 24.1667 7.45732 24.1667 10.875V19.125C24.1667 22.3673 24.1667 23.9885 23.1465 24.4843C22.1263 24.9802 20.8515 23.9786 18.3021 21.9754L17.4861 21.3343C16.0526 20.208 15.3358 19.6448 14.5 19.6448C13.6642 19.6448 12.9474 20.208 11.5139 21.3343L10.6979 21.9754C8.14845 23.9786 6.87371 24.9802 5.85352 24.4843C4.83333 23.9885 4.83333 22.3673 4.83333 19.125V10.875Z" fill="#571228" stroke="#571228" stroke-width="2"/>
</svg>
