<svg width="29" height="29" viewBox="0 0 29 29" fill="none" xmlns="http://www.w3.org/2000/svg">
<path d="M3.625 11.9071C3.625 10.6697 4.62805 9.66668 5.86537 9.66668V9.66668C6.71396 9.66668 7.48972 9.18723 7.86922 8.42823L8.86111 6.44446C9.1055 5.95568 9.22769 5.71129 9.39488 5.51943C9.66005 5.21512 10.0111 4.99816 10.4019 4.89708C10.6482 4.83334 10.9215 4.83334 11.4679 4.83334H17.5321C18.0785 4.83334 18.3518 4.83334 18.5981 4.89708C18.9889 4.99816 19.3399 5.21512 19.6051 5.51943C19.7723 5.71129 19.8945 5.95568 20.1389 6.44445L21.1308 8.42823C21.5103 9.18723 22.286 9.66668 23.1346 9.66668V9.66668C24.372 9.66668 25.375 10.6697 25.375 11.9071V18.1667C25.375 20.9951 25.375 22.4093 24.4963 23.288C23.6176 24.1667 22.2034 24.1667 19.375 24.1667H9.625C6.79657 24.1667 5.38236 24.1667 4.50368 23.288C3.625 22.4093 3.625 20.9951 3.625 18.1667V11.9071Z" stroke="#571228" stroke-width="2"/>
<path d="M18.3333 15.7083C18.3333 17.8254 16.6171 19.5417 14.5 19.5417C12.3829 19.5417 10.6666 17.8254 10.6666 15.7083C10.6666 13.5912 12.3829 11.875 14.5 11.875C16.6171 11.875 18.3333 13.5912 18.3333 15.7083Z" stroke="#571228" stroke-width="2"/>
</svg>
