<svg width="29" height="29" viewBox="0 0 29 29" fill="none" xmlns="http://www.w3.org/2000/svg">
<path d="M4.83337 14.5C4.83337 13.881 4.83337 13.5715 4.8486 13.31C5.11411 8.75139 8.75143 5.11407 13.3101 4.84856C13.5715 4.83333 13.881 4.83333 14.5 4.83333V4.83333C15.1191 4.83333 15.4286 4.83333 15.69 4.84856C20.2486 5.11407 23.886 8.75139 24.1515 13.31C24.1667 13.5715 24.1667 13.881 24.1667 14.5V20.6515C24.1667 22.0704 24.1667 22.7799 23.823 23.2877C23.6803 23.4986 23.4986 23.6802 23.2877 23.823C22.7799 24.1667 22.0705 24.1667 20.6516 24.1667H14.5C13.881 24.1667 13.5715 24.1667 13.3101 24.1514C8.75143 23.8859 5.11411 20.2486 4.8486 15.69C4.83337 15.4285 4.83337 15.119 4.83337 14.5V14.5Z" stroke="#571228" stroke-width="2"/>
<path d="M10.875 14.5L18.125 14.5" stroke="#571228" stroke-width="2" stroke-linecap="round" stroke-linejoin="round"/>
<path d="M14.5 10.875L14.5 18.125" stroke="#571228" stroke-width="2" stroke-linecap="round" stroke-linejoin="round"/>
</svg>
