<svg width="48" height="48" viewBox="0 0 48 48" fill="none" xmlns="http://www.w3.org/2000/svg">
<path d="M18 12C18 12.7879 18.1552 13.5681 18.4567 14.2961C18.7583 15.0241 19.2002 15.6855 19.7574 16.2426C20.3145 16.7998 20.9759 17.2417 21.7039 17.5433C22.4319 17.8448 23.2121 18 24 18C24.7879 18 25.5681 17.8448 26.2961 17.5433C27.0241 17.2417 27.6855 16.7998 28.2426 16.2426C28.7998 15.6855 29.2417 15.0241 29.5433 14.2961C29.8448 13.5681 30 12.7879 30 12C30 11.2121 29.8448 10.4319 29.5433 9.7039C29.2417 8.97594 28.7998 8.31451 28.2426 7.75736C27.6855 7.20021 27.0241 6.75825 26.2961 6.45672C25.5681 6.15519 24.7879 6 24 6C23.2121 6 22.4318 6.1552 21.7039 6.45672C20.9759 6.75825 20.3145 7.20021 19.7574 7.75736C19.2002 8.31451 18.7582 8.97595 18.4567 9.7039C18.1552 10.4319 18 11.2121 18 12L18 12Z" stroke="white" stroke-width="2"/>
<path d="M8.87563 27.803C8.19326 28.197 7.59517 28.7215 7.11551 29.3466C6.63584 29.9717 6.284 30.6852 6.08007 31.4462C5.87614 32.2073 5.82411 33.0011 5.92696 33.7823C6.0298 34.5635 6.28551 35.3168 6.67947 35.9992C7.07344 36.6815 7.59795 37.2796 8.22306 37.7593C8.84817 38.2389 9.56163 38.5908 10.3227 38.7947C11.0838 38.9986 11.8776 39.0507 12.6588 38.9478C13.44 38.845 14.1933 38.5893 14.8756 38.1953C15.558 37.8013 16.1561 37.2768 16.6357 36.6517C17.1154 36.0266 17.4672 35.3132 17.6712 34.5521C17.8751 33.791 17.9271 32.9972 17.8243 32.216C17.7214 31.4348 17.4657 30.6815 17.0718 29.9992C16.6778 29.3168 16.1533 28.7187 15.5282 28.239C14.9031 27.7594 14.1896 27.4075 13.4285 27.2036C12.6675 26.9997 11.8737 26.9476 11.0925 27.0505C10.3113 27.1533 9.55799 27.409 8.87562 27.803L8.87563 27.803Z" stroke="white" stroke-width="2"/>
<path d="M39.1244 27.803C39.8067 28.197 40.4048 28.7215 40.8845 29.3466C41.3642 29.9717 41.716 30.6852 41.9199 31.4462C42.1239 32.2073 42.1759 33.0011 42.073 33.7823C41.9702 34.5635 41.7145 35.3168 41.3205 35.9992C40.9266 36.6815 40.402 37.2796 39.7769 37.7593C39.1518 38.2389 38.4384 38.5908 37.6773 38.7947C36.9162 38.9986 36.1224 39.0507 35.3412 38.9478C34.56 38.845 33.8067 38.5893 33.1244 38.1953C32.442 37.8013 31.8439 37.2768 31.3643 36.6517C30.8846 36.0266 30.5328 35.3132 30.3288 34.5521C30.1249 33.791 30.0729 32.9972 30.1757 32.216C30.2786 31.4348 30.5343 30.6815 30.9282 29.9992C31.3222 29.3168 31.8467 28.7187 32.4718 28.239C33.0969 27.7594 33.8104 27.4075 34.5715 27.2036C35.3325 26.9997 36.1263 26.9476 36.9075 27.0505C37.6887 27.1533 38.442 27.409 39.1244 27.803L39.1244 27.803Z" stroke="white" stroke-width="2"/>
<path fill-rule="evenodd" clip-rule="evenodd" d="M18.0504 12.7774C18.0168 12.5204 17.9999 12.2609 17.9999 12.0006C17.9999 11.2127 18.1551 10.4324 18.4566 9.70449C18.5065 9.58407 18.5602 9.46547 18.6176 9.34886C18.1739 9.49231 17.7353 9.65366 17.303 9.8327C15.1798 10.7122 13.2506 12.0012 11.6256 13.6262C10.0006 15.2513 8.71156 17.1804 7.8321 19.3036C6.95265 21.4268 6.5 23.7025 6.5 26.0006C6.5 27.2351 6.63062 28.4632 6.88786 29.6646C6.96013 29.5565 7.036 29.4506 7.11537 29.3472C7.59503 28.7221 8.19312 28.1976 8.87549 27.8036C9.10094 27.6734 9.33414 27.5584 9.57352 27.4589C9.52463 26.9752 9.5 26.4885 9.5 26.0006C9.5 24.0964 9.87505 22.2109 10.6037 20.4517C11.3324 18.6925 12.4005 17.094 13.7469 15.7476C14.9904 14.5041 16.4489 13.498 18.0504 12.7774ZM29.9494 12.7773C31.551 13.4979 33.0095 14.504 34.253 15.7475C35.5995 17.094 36.6676 18.6925 37.3963 20.4517C38.1249 22.2109 38.5 24.0964 38.5 26.0006C38.5 26.4886 38.4754 26.9753 38.4265 27.459C38.6658 27.5584 38.8989 27.6735 39.1242 27.8036C39.8066 28.1976 40.4047 28.7221 40.8844 29.3472C40.9638 29.4507 41.0397 29.5567 41.1121 29.6649C41.3694 28.4634 41.5 27.2352 41.5 26.0006C41.5 23.7025 41.0473 21.4268 40.1679 19.3036C39.2884 17.1804 37.9994 15.2512 36.3744 13.6262C34.7493 12.0012 32.8202 10.7122 30.697 9.8327C30.2646 9.65361 29.8259 9.49223 29.382 9.34875C29.4395 9.4654 29.4932 9.58403 29.5431 9.70449C29.8447 10.4324 29.9999 11.2127 29.9999 12.0006C29.9999 12.2609 29.9829 12.5203 29.9494 12.7773ZM35.7306 38.9868C35.6006 38.9783 35.4707 38.9655 35.3411 38.9484C34.5599 38.8456 33.8066 38.5899 33.1242 38.1959C32.899 38.0659 32.683 37.9216 32.4774 37.7643C31.5698 38.4183 30.5873 38.9667 29.5489 39.3968C27.7897 40.1255 25.9042 40.5006 24 40.5006C22.0958 40.5006 20.2103 40.1255 18.4511 39.3968C17.4126 38.9667 16.4301 38.4183 15.5225 37.7642C15.3168 37.9216 15.1007 38.0659 14.8755 38.1959C14.1931 38.5899 13.4398 38.8456 12.6586 38.9484C12.5292 38.9655 12.3993 38.9783 12.2693 38.9868C13.7515 40.3257 15.4537 41.4025 17.303 42.1685C19.4262 43.0479 21.7019 43.5006 24 43.5006C26.2981 43.5006 28.5738 43.0479 30.697 42.1685C32.5463 41.4025 34.2485 40.3257 35.7306 38.9868Z" fill="white"/>
</svg>
