<svg width="48" height="48" viewBox="0 0 48 48" fill="none" xmlns="http://www.w3.org/2000/svg">
<path fill-rule="evenodd" clip-rule="evenodd" d="M28.1801 5.80097V5.80099L28.4622 8.62182C28.6255 10.2554 28.7072 11.0721 29.26 11.3011C29.8128 11.5301 30.4481 11.0103 31.7187 9.97073L33.9128 8.17559C34.5785 7.63088 34.9114 7.35853 35.2963 7.37772C35.6811 7.39691 35.9852 7.70104 36.5935 8.30929L39.6906 11.4065C40.2989 12.0147 40.603 12.3188 40.6222 12.7037C40.6414 13.0885 40.3691 13.4214 39.8243 14.0871L38.0292 16.2813C36.9896 17.5519 36.4698 18.1871 36.6988 18.74C36.9278 19.2928 37.7445 19.3745 39.3781 19.5378L42.199 19.8199C43.0549 19.9055 43.4829 19.9483 43.7415 20.234C44 20.5197 44 20.9498 44 21.81V26.19C44 27.0502 44 27.4803 43.7415 27.766C43.4829 28.0517 43.0549 28.0945 42.199 28.1801L39.3788 28.4621C37.7453 28.6255 36.9285 28.7071 36.6995 29.26C36.4705 29.8128 36.9903 30.4481 38.0299 31.7187L39.8244 33.912C40.3691 34.5777 40.6415 34.9106 40.6223 35.2954C40.6031 35.6803 40.299 35.9844 39.6907 36.5927L36.5936 39.6898C35.9853 40.2981 35.6812 40.6022 35.2964 40.6214C34.9115 40.6406 34.5786 40.3682 33.9129 39.8235L31.7188 38.0284C30.4482 36.9888 29.8129 36.469 29.2601 36.698C28.7073 36.927 28.6256 37.7438 28.4623 39.3773L28.1801 42.199C28.0945 43.0549 28.0517 43.4829 27.766 43.7415C27.4803 44 27.0502 44 26.19 44H21.81C20.9498 44 20.5197 44 20.234 43.7415C19.9483 43.4829 19.9055 43.0549 19.8199 42.199L19.5378 39.3781C19.3745 37.7445 19.2928 36.9278 18.74 36.6988C18.1871 36.4698 17.5519 36.9896 16.2813 38.0292L14.0871 39.8244C13.4213 40.3691 13.0884 40.6415 12.7036 40.6223C12.3187 40.6031 12.0146 40.299 11.4064 39.6907L8.3092 36.5936C7.70095 35.9853 7.39682 35.6812 7.37763 35.2964C7.35843 34.9115 7.63079 34.5786 8.1755 33.9129L9.97071 31.7187C11.0103 30.4481 11.5301 29.8128 11.3011 29.26C11.0721 28.7072 10.2553 28.6255 8.62181 28.4622L5.80099 28.1801H5.80097C4.94505 28.0945 4.51709 28.0517 4.25855 27.766C4 27.4803 4 27.0502 4 26.19V21.81C4 20.9498 4 20.5197 4.25855 20.234C4.51709 19.9483 4.94506 19.9055 5.80099 19.8199L8.62256 19.5377C10.2561 19.3744 11.0729 19.2927 11.3018 18.7399C11.5308 18.1871 11.011 17.5518 9.97147 16.2812L8.17559 14.0862C7.63088 13.4205 7.35853 13.0876 7.37772 12.7028C7.39691 12.3179 7.70104 12.0138 8.30929 11.4055L11.4065 8.30839C12.0147 7.70013 12.3188 7.39601 12.7037 7.37681C13.0885 7.35762 13.4214 7.62997 14.0871 8.17469L16.2813 9.96994C17.5519 11.0095 18.1872 11.5293 18.7401 11.3003C19.2929 11.0713 19.3745 10.2546 19.5379 8.62103L19.8199 5.80099C19.9055 4.94506 19.9483 4.51709 20.234 4.25855C20.5197 4 20.9498 4 21.81 4H26.19C27.0502 4 27.4803 4 27.766 4.25855C28.0517 4.51709 28.0945 4.94505 28.1801 5.80097ZM24 32C28.4183 32 32 28.4183 32 24C32 19.5817 28.4183 16 24 16C19.5817 16 16 19.5817 16 24C16 28.4183 19.5817 32 24 32Z" fill="white"/>
</svg>
