<svg width="48" height="48" viewBox="0 0 48 48" fill="none" xmlns="http://www.w3.org/2000/svg">
<path fill-rule="evenodd" clip-rule="evenodd" d="M8.63604 8.63604C6 11.2721 6 15.5147 6 24C6 32.4853 6 36.7279 8.63604 39.364C11.2721 42 15.5147 42 24 42H36C38.8284 42 40.2426 42 41.1213 41.1213C42 40.2426 42 38.8284 42 36V24C42 15.5147 42 11.2721 39.364 8.63604C36.7279 6 32.4853 6 24 6C15.5147 6 11.2721 6 8.63604 8.63604ZM17 22C17 21.4477 17.4477 21 18 21H30C30.5523 21 31 21.4477 31 22C31 22.5523 30.5523 23 30 23H18C17.4477 23 17 22.5523 17 22ZM23 30C23 29.4477 23.4477 29 24 29H30C30.5523 29 31 29.4477 31 30C31 30.5523 30.5523 31 30 31H24C23.4477 31 23 30.5523 23 30Z" fill="white"/>
</svg>
