<svg width="29" height="29" viewBox="0 0 29 29" fill="none" xmlns="http://www.w3.org/2000/svg">
<path d="M14.8993 23.9718L15.3543 24.8623L15.3543 24.8623L14.8993 23.9718ZM14.1007 23.9718L13.6456 24.8623H13.6456L14.1007 23.9718ZM21.9583 13.2917C21.9583 16.0022 20.556 18.2179 18.8527 19.91C17.1511 21.6004 15.2381 22.6757 14.4442 23.0814L15.3543 24.8623C16.2368 24.4113 18.3533 23.2251 20.2622 21.3289C22.1693 19.4344 23.9583 16.7384 23.9583 13.2917H21.9583ZM14.5 5.83334C18.6191 5.83334 21.9583 9.17255 21.9583 13.2917H23.9583C23.9583 8.06798 19.7237 3.83334 14.5 3.83334V5.83334ZM7.04163 13.2917C7.04163 9.17255 10.3808 5.83334 14.5 5.83334V3.83334C9.27627 3.83334 5.04163 8.06798 5.04163 13.2917H7.04163ZM14.5557 23.0814C13.7618 22.6757 11.8488 21.6004 10.1473 19.91C8.44392 18.2179 7.04163 16.0022 7.04163 13.2917H5.04163C5.04163 16.7384 6.83065 19.4344 8.73773 21.3289C10.6466 23.2251 12.7631 24.4113 13.6456 24.8623L14.5557 23.0814ZM14.4442 23.0814C14.4567 23.075 14.4763 23.0691 14.5 23.0691C14.5237 23.0691 14.5432 23.075 14.5557 23.0814L13.6456 24.8623C14.185 25.138 14.8149 25.138 15.3543 24.8623L14.4442 23.0814ZM17.125 13.2917C17.125 14.7414 15.9497 15.9167 14.5 15.9167V17.9167C17.0543 17.9167 19.125 15.846 19.125 13.2917H17.125ZM14.5 10.6667C15.9497 10.6667 17.125 11.8419 17.125 13.2917H19.125C19.125 10.7374 17.0543 8.66668 14.5 8.66668V10.6667ZM11.875 13.2917C11.875 11.8419 13.0502 10.6667 14.5 10.6667V8.66668C11.9456 8.66668 9.87496 10.7374 9.87496 13.2917H11.875ZM14.5 15.9167C13.0502 15.9167 11.875 14.7414 11.875 13.2917H9.87496C9.87496 15.846 11.9456 17.9167 14.5 17.9167V15.9167Z" fill="#571228"/>
</svg>
