<svg width="29" height="29" viewBox="0 0 29 29" fill="none" xmlns="http://www.w3.org/2000/svg">
<path d="M21.75 24.1667L21.0429 24.8738L21.75 25.5809L22.4571 24.8738L21.75 24.1667ZM15.7084 5.04167C15.1561 5.04167 14.7084 5.48938 14.7084 6.04167C14.7084 6.59395 15.1561 7.04167 15.7084 7.04167L15.7084 5.04167ZM16.2096 20.0404L21.0429 24.8738L22.4571 23.4596L17.6238 18.6262L16.2096 20.0404ZM22.4571 24.8738L27.2905 20.0404L25.8763 18.6262L21.0429 23.4596L22.4571 24.8738ZM22.75 24.1667L22.75 10.0417L20.75 10.0417L20.75 24.1667L22.75 24.1667ZM17.75 5.04167L15.7084 5.04167L15.7084 7.04167L17.75 7.04167L17.75 5.04167ZM22.75 10.0417C22.75 7.28024 20.5115 5.04167 17.75 5.04167L17.75 7.04167C19.4069 7.04167 20.75 8.38481 20.75 10.0417L22.75 10.0417Z" fill="#571228"/>
<path d="M7.24996 4.83333L7.95707 4.12623L7.24996 3.41912L6.54285 4.12623L7.24996 4.83333ZM13.2916 23.9583C13.8439 23.9583 14.2916 23.5106 14.2916 22.9583C14.2916 22.406 13.8439 21.9583 13.2916 21.9583L13.2916 23.9583ZM12.7904 8.95956L7.95707 4.12623L6.54285 5.54044L11.3762 10.3738L12.7904 8.95956ZM6.54285 4.12623L1.70952 8.95956L3.12373 10.3738L7.95707 5.54044L6.54285 4.12623ZM6.24996 4.83333L6.24996 18.9583L8.24996 18.9583L8.24996 4.83333L6.24996 4.83333ZM11.25 23.9583L13.2916 23.9583L13.2916 21.9583L11.25 21.9583L11.25 23.9583ZM6.24996 18.9583C6.24996 21.7198 8.48854 23.9583 11.25 23.9583L11.25 21.9583C9.5931 21.9583 8.24996 20.6152 8.24996 18.9583L6.24996 18.9583Z" fill="#571228"/>
</svg>
